<?xml version="1.0" encoding="utf-8"?>
<!-- Generator: Adobe Illustrator 25.0.0, SVG Export Plug-In . SVG Version: 6.00 Build 0)  -->
<svg version="1.1" id="Layer_1" xmlns="http://www.w3.org/2000/svg" xmlns:xlink="http://www.w3.org/1999/xlink" x="0px" y="0px"
	 viewBox="0 0 96.7 96.7" style="enable-background:new 0 0 96.7 96.7;" xml:space="preserve">
<style type="text/css">
	.st0{fill-rule:evenodd;clip-rule:evenodd;fill:#7F7F7F;}
</style>
<path class="st0" d="M27.63,0h6.91v13.81h27.63V0h6.91v13.81H89.8c3.81,0,6.91,3.09,6.91,6.91V89.8c0,3.81-3.09,6.91-6.91,6.91H6.91
	C3.09,96.7,0,93.61,0,89.8V20.72c0-3.81,3.09-6.91,6.91-6.91h20.72V0z M62.17,20.72v6.91h6.91v-6.91H89.8v20.72H6.91V20.72h20.72
	v6.91h6.91v-6.91H62.17z M6.91,48.35V89.8H89.8V48.35H6.91z"/>
</svg>
