<?xml version="1.0" encoding="utf-8"?>
<!-- Generator: Adobe Illustrator 25.0.0, SVG Export Plug-In . SVG Version: 6.00 Build 0)  -->
<svg version="1.1" id="Layer_1" xmlns="http://www.w3.org/2000/svg" xmlns:xlink="http://www.w3.org/1999/xlink" x="0px" y="0px"
	 viewBox="0 0 117.19 138.25" style="enable-background:new 0 0 117.19 138.25;" xml:space="preserve">
<style type="text/css">
	.st0{fill-rule:evenodd;clip-rule:evenodd;}
</style>
<path class="st0" d="M25.85,43.66l3.62,0.33v-0.08l0.04-0.29l0.15-1.16c0.15-1.03,0.39-2.51,0.77-4.29
	c0.93-4.47,2.33-8.83,4.18-13.01C38.91,15.7,46.14,7.28,58.6,7.28c12.45,0,19.68,8.42,23.98,17.88c1.85,4.17,3.26,8.53,4.18,13
	c0.39,1.81,0.69,3.63,0.92,5.46l0.03,0.29v0.07l3.63-0.33l3.62-0.33v-0.04l-0.01-0.11c-0.06-0.58-0.14-1.17-0.22-1.75
	c-0.23-1.6-0.52-3.19-0.86-4.77c-1.04-4.99-2.61-9.85-4.68-14.51C84.39,11.59,75.25,0,58.6,0C41.93,0,32.79,11.59,28,22.14
	c-2.08,4.66-3.65,9.52-4.69,14.51c-0.45,2.16-0.81,4.33-1.07,6.52l-0.01,0.11v0.04L25.85,43.66z M11.3,58.21H8l-0.33,3.27
	L0.4,134.25l-0.4,4h117.19l-0.4-4l-7.28-72.76l-0.33-3.27L11.3,58.21L11.3,58.21z M8.04,130.97l6.55-65.49h88.01l6.55,65.49H8.04z"
	/>
</svg>
