<?xml version="1.0" encoding="utf-8"?>
<!-- Generator: Adobe Illustrator 25.0.0, SVG Export Plug-In . SVG Version: 6.00 Build 0)  -->
<svg version="1.1" id="Layer_1" xmlns="http://www.w3.org/2000/svg" xmlns:xlink="http://www.w3.org/1999/xlink" x="0px" y="0px"
	 viewBox="0 0 78.09 105.98" style="enable-background:new 0 0 78.09 105.98;" xml:space="preserve">
<style type="text/css">
	.st0{fill-rule:evenodd;clip-rule:evenodd;}
</style>
<g>
	<path class="st0" d="M5.99,34.34l0.01-0.04L6,34.26c0.25-1.74,1.37-9.06,6-15.85c4.42-6.48,12.25-12.83,27.01-12.83
		c14.51,0,22.65,6.96,27.4,14.42c2.94,4.7,4.94,9.93,5.88,15.39c0.1,0.6,0.17,1.21,0.22,1.81v0.13l0.01,0.02v0.02
		c-0.01,4.06-0.51,8.1-1.51,12.03c-0.88,3.49-2.66,6.73-5.26,10.36l-26.7,36.67L12.83,59.78l-0.04-0.06l-0.04-0.04
		C6.87,51.85,4.57,43.31,5.99,34.34z M42.46,101.23l27.81-38.2c2.79-3.9,5.02-7.81,6.14-12.27c1.12-4.46,1.68-8.92,1.68-13.39
		S72.51,0,39.01,0C5.5,0,1.03,29.56,0.47,33.47C-1.2,44.06,1.59,54.1,8.29,63.03l27.29,38.17l3.42,4.78L42.46,101.23L42.46,101.23z
		 M50.2,39.04c0,6.16-4.99,11.16-11.16,11.16s-11.16-4.99-11.16-11.16s4.99-11.16,11.16-11.16S50.2,32.88,50.2,39.04z M55.78,39.04
		c0,9.24-7.49,16.73-16.73,16.73s-16.73-7.49-16.73-16.73s7.49-16.73,16.73-16.73S55.78,29.8,55.78,39.04z"/>
</g>
</svg>
