<?xml version="1.0" encoding="utf-8"?>
<!-- Generator: Adobe Illustrator 25.0.0, SVG Export Plug-In . SVG Version: 6.00 Build 0)  -->
<svg version="1.1" id="Layer_1" xmlns="http://www.w3.org/2000/svg" xmlns:xlink="http://www.w3.org/1999/xlink" x="0px" y="0px"
	 viewBox="0 0 99.58 99.8" style="enable-background:new 0 0 99.58 99.8;" xml:space="preserve">
<style type="text/css">
	.st0{fill-rule:evenodd;clip-rule:evenodd;fill:#868686;}
</style>
<path class="st0" d="M50.17,92.71c7.1,3.55,15.95,7.09,24.21,7.09c7.68,0,18.9-4.14,23.03-11.81c2.96-5.91,3.55-12.4-2.36-15.94
	c-1.56-0.92-3.13-1.8-4.72-2.66c-1.62-0.89-3.25-1.77-4.72-2.66c-1.18-0.59-2.51-1.48-3.84-2.37c-1.33-0.88-2.65-1.77-3.83-2.37
	c-1.18-0.59-1.77-0.59-2.37-0.59c-2.95,0-5.32,2.37-7.08,4.72c-0.54,0.64-1.04,1.31-1.49,2.01c-1.6,2.32-3.9,5.66-5.6,5.66
	l-4.72-2.37c-8.86-4.72-15.94-10.62-21.25-17.71c-2.5-3.11-4.68-6.48-6.5-10.03c-0.59-0.59-1.77-2.96-2.37-4.73
	c1.07-1.06,2.44-2.16,3.87-3.31c4.9-3.93,10.56-8.46,7.35-14.4c-1.73-2.17-3.14-4.65-4.48-6.98c-0.48-0.85-0.95-1.68-1.42-2.46
	c-0.59-0.98-1.18-2.16-1.79-3.39c-1.23-2.45-2.54-5.07-4.11-6.65C24.19,0.59,22.41,0,20.65,0C15.92,0,10.02,2.95,7.66,5.32
	C1.16,12.4-1.2,22.44,0.57,31.89c4.14,17.12,13.59,31.88,26.58,44.28C33.64,82.67,41.32,88.57,50.17,92.71L50.17,92.71z M6.66,30.59
	c3.82,15.69,12.53,29.39,24.78,41.08l0.06,0.05l0.05,0.05c6.11,6.11,13.2,11.54,21.26,15.3l0.07,0.04l0.07,0.04
	c6.93,3.46,14.69,6.42,21.43,6.42c2.85,0,6.68-0.8,10.21-2.44c3.54-1.65,6.07-3.8,7.29-6.02c1.17-2.37,1.56-4.26,1.46-5.49
	c-0.02-0.42-0.13-0.83-0.34-1.19c-0.29-0.44-0.69-0.8-1.16-1.05c-1.35-0.81-2.86-1.63-4.51-2.53l-0.06-0.03
	c-1.51-0.83-3.16-1.72-4.69-2.64c-1.46-0.75-2.97-1.76-4.12-2.53l-0.16-0.11c-0.92-0.63-1.87-1.23-2.83-1.79
	c-0.77,0.61-1.45,1.32-2.02,2.12l-0.27,0.35l-0.22,0.22l0.01-0.01l-0.65,0.93l-0.2,0.29c-0.49,0.7-1.11,1.61-1.77,2.49
	c-0.84,1.15-1.79,2.22-2.82,3.21c-0.81,0.75-3.01,2.68-6.15,2.68h-1.47l-6.11-3.05l-0.07-0.04c-9.52-5.08-17.33-11.52-23.25-19.39
	c-2.61-3.26-4.89-6.76-6.83-10.46c-0.21-0.29-0.41-0.59-0.59-0.89c-0.98-1.67-1.79-3.43-2.42-5.27l-1.21-3.64l2.72-2.72
	c1.33-1.33,2.98-2.65,4.36-3.76l0.47-0.37c1.62-1.3,2.94-2.41,3.98-3.5c1.06-1.12,1.41-1.8,1.49-2.1v-0.01
	c0.02-0.03,0.05-0.09-0.01-0.27c-1.88-2.46-3.52-5.34-4.78-7.57c-0.42-0.75-0.8-1.41-1.14-1.97c-0.77-1.35-1.5-2.72-2.18-4.11
	c-0.24-0.49-0.49-0.97-0.73-1.46c-0.49-0.99-1.05-1.94-1.69-2.84c-0.39-0.23-0.83-0.36-1.28-0.38c-1.2,0-2.98,0.42-4.89,1.24
	c-1.31,0.54-2.53,1.28-3.63,2.18C7.23,15.07,5.27,22.93,6.66,30.59L6.66,30.59z"/>
</svg>
