<?xml version="1.0" encoding="utf-8"?>
<!-- Generator: Adobe Illustrator 25.0.0, SVG Export Plug-In . SVG Version: 6.00 Build 0)  -->
<svg version="1.1" id="Layer_1" xmlns="http://www.w3.org/2000/svg" xmlns:xlink="http://www.w3.org/1999/xlink" x="0px" y="0px"
	 viewBox="0 0 125 102.94" style="enable-background:new 0 0 125 102.94;" xml:space="preserve">
<style type="text/css">
	.st0{fill-rule:evenodd;clip-rule:evenodd;fill:#7F7F7F;}
</style>
<path class="st0" d="M102.94,51.47h14.71V7.35H58.82v44.12h29.41v11.76l9.56-9.56l2.21-2.21H102.94z M58.82,0h58.82
	c4.41,0,7.35,2.94,7.35,7.35v44.12c0,4.41-2.94,7.35-7.35,7.35h-14.71L80.88,80.88V58.82H58.82c-4.41,0-7.35-2.94-7.35-7.35V7.35
	C51.47,2.94,54.41,0,58.82,0z M58.82,80.88v-7.35H36.76v11.76l-9.56-9.56L25,73.53H7.35V29.41h29.41v-7.35H7.35
	C2.94,22.06,0,25,0,29.41v44.12c0,4.41,2.94,7.35,7.35,7.35h14.71l22.06,22.06V80.88H58.82z"/>
</svg>
