<?xml version="1.0" encoding="utf-8"?>
<!-- Generator: Adobe Illustrator 25.0.0, SVG Export Plug-In . SVG Version: 6.00 Build 0)  -->
<svg version="1.1" id="Layer_1" xmlns="http://www.w3.org/2000/svg" xmlns:xlink="http://www.w3.org/1999/xlink" x="0px" y="0px"
	 viewBox="0 0 110.34 86.69" style="enable-background:new 0 0 110.34 86.69;" xml:space="preserve">
<style type="text/css">
	.st0{fill-rule:evenodd;clip-rule:evenodd;fill:#7F7F7F;}
</style>
<path class="st0" d="M96.88,7.88H13.44l38.93,38.93c1.54,1.54,4.03,1.54,5.57,0L96.88,7.88z M7.88,13.48v65.34h94.58V13.45
	L63.52,52.39c-4.62,4.62-12.1,4.62-16.72,0.01c0,0,0,0-0.01-0.01L7.88,13.48z M0,7.88C0,3.53,3.53,0,7.88,0h94.58
	c4.35,0,7.88,3.53,7.88,7.88v70.93c0,4.35-3.53,7.88-7.88,7.88H7.88C3.53,86.69,0,83.17,0,78.81V7.88z"/>
</svg>
