<?xml version="1.0" encoding="utf-8"?>
<!-- Generator: Adobe Illustrator 25.0.0, SVG Export Plug-In . SVG Version: 6.00 Build 0)  -->
<svg version="1.1" id="Layer_1" xmlns="http://www.w3.org/2000/svg" xmlns:xlink="http://www.w3.org/1999/xlink" x="0px" y="0px"
	 viewBox="0 0 86.29 86.29" style="enable-background:new 0 0 86.29 86.29;" xml:space="preserve">
<style type="text/css">
	.st0{fill-rule:evenodd;clip-rule:evenodd;fill:#7F7F7F;}
</style>
<path class="st0" d="M86.29,43.15c0,23.83-19.32,43.15-43.15,43.15S0,66.98,0,43.15S19.32,0,43.15,0S86.29,19.32,86.29,43.15z
	 M81.5,43.15c0,21.18-17.17,38.35-38.35,38.35S4.79,64.33,4.79,43.15S21.97,4.79,43.15,4.79S81.5,21.97,81.5,43.15z M38.39,23.96
	c-0.02,2.65,2.11,4.82,4.76,4.84c2.65,0.02,4.82-2.11,4.84-4.76l0,0c0.02-2.65-2.11-4.82-4.76-4.84
	C40.58,19.18,38.41,21.31,38.39,23.96z M47.98,38.39h-9.59v28.76h9.59V38.39z"/>
</svg>
