<?xml version="1.0" encoding="utf-8"?>
<!-- Generator: Adobe Illustrator 25.0.0, SVG Export Plug-In . SVG Version: 6.00 Build 0)  -->
<svg version="1.1" id="Layer_1" xmlns="http://www.w3.org/2000/svg" xmlns:xlink="http://www.w3.org/1999/xlink" x="0px" y="0px"
	 viewBox="0 0 167.16 91.48" style="enable-background:new 0 0 167.16 91.48;" xml:space="preserve">
<style type="text/css">
	.st0{fill:#222222;}
</style>
<path class="st0" d="M95.45,78.52c-0.23-0.28-0.34-0.57-0.67-0.74c-0.9,0.06-1.63-0.23-1.96-1.02c0.23-0.51-0.5-0.68-0.22-1.2
	c-0.39-0.34-0.67-0.8-1.23-0.68c-0.06-0.06-0.28-0.17-0.22-0.34c-0.17-0.45-0.67-0.85-0.45-1.25c0.39-0.28,0-0.68,0.28-0.97
	c-0.17-0.4-0.11-0.97-0.22-1.48c-0.23-0.68,0.22-1.42,0.06-2.16c0.06-0.06,0.06-0.11,0.11-0.11c0.23-1.08-0.5-1.82-0.22-2.96
	c0.22-0.11-0.06-0.51,0.22-0.57v-0.23c0.45-0.34,0.67-0.8,1.01-1.25c0.23-0.51-0.34-0.63-0.39-1.03c-0.62-0.63-1.01-1.31-1.4-1.99
	c-0.56-0.06-0.34-0.63-0.67-0.97c0.06-0.28-0.34-0.63-0.22-1.08c0.22-0.91,0.06-1.94,0.11-2.85c-0.22-0.45-0.06-0.97,0-1.48
	c0.62-0.68,0-1.59,0.23-2.39c0.11-0.28,0.34-0.57,0.22-0.91c0.11-0.74-0.28-1.65-0.06-2.5c0.34-0.17,0-0.57,0.34-0.74
	c0-0.34-0.06-0.68,0.11-0.8c0-0.23-0.22-0.51-0.28-0.8c-0.11-0.17-0.22-0.34-0.45-0.23c-0.22-0.4-0.62-0.91-0.22-1.36
	c-0.06-0.28,0.17-0.63,0.28-0.91c-0.06-0.63,0.17-1.42-0.17-1.99c-0.56-1.08,0.22-2.11-0.11-3.24c0.28-0.28,0.11-0.74,0.17-1.08
	c-0.62-0.46,0-1.08-0.39-1.59c0.34-0.8,0.06-1.76,0.06-2.56c-0.34-0.63,0.06-1.37-0.11-1.93c0.17-0.74,0.06-1.25,0.06-1.99
	c0.5-0.51-0.11-0.97-0.06-1.54c0.22-0.57-0.06-1.25,0.06-1.82l-0.06-0.11c0-1.25-0.23-2.45-0.17-3.81c-0.56-0.4,0.28-0.91-0.11-1.48
	c0.17-0.46-0.11-0.8-0.11-1.2c0.39-0.06,0.5-0.46,0.84-0.68c0.45,0.11,0.67-0.34,1.01-0.57c-0.23-0.45,0.39-0.51,0.22-0.97
	c-0.5-0.28-0.17-0.85-0.22-1.42c-0.23-0.06-0.17-0.23-0.17-0.4c-0.06-0.06-0.17-0.23-0.28-0.17c-0.22-0.34-0.78-0.23-0.95-0.68
	c-1.01-0.17-1.07-1.42-1.79-2.05c-0.39,0.23-0.56-0.28-0.84-0.28c-0.39-0.51-1.23-0.97-1.18-1.59c0-0.06-0.11-0.06-0.11-0.11
	c-0.11-0.23-0.17-0.51-0.34-0.68c0.06-0.28,0.06-0.57,0.06-0.8c0.06-0.06,0.28-0.17,0-0.28c0-0.46-0.06-0.97,0-1.54
	c-0.06-0.11-0.22-0.11-0.28-0.28c-0.11-0.28,0.06-0.4,0-0.51c-0.06-0.11-0.56-0.97-1.18-1.02c-0.39,0.23-0.5,0.46-0.56,0.74
	c-0.17,0.11-0.06,0.28-0.11,0.46c-0.17,0.34-0.11,0.97-0.11,1.42c0,0.34-0.17,0.46-0.17,0.74c0,0.11,0,1.08-0.28,1.42
	c-0.06,0.28,0,0.46-0.11,0.74c-0.11,0.23-0.34,0.45-0.51,0.63c-0.06,0.23-0.28,0.45-0.5,0.68c-0.17,0.23-0.34,0.17-0.39,0.23
	c-0.17,0.11-0.11,0.23-0.17,0.28c-0.06,0.06-0.11,0.06-0.17,0.11c-0.22,0.23-0.28,0.45-0.45,0.63c-0.11,0.11-0.23,0.11-0.34,0.23
	c-0.23,0.23-0.11,0.4-0.5,0.63c-0.06,0.06-0.11,0.23-0.17,0.28c-0.12,0.06-0.22,0.16-0.28,0.28c-0.11,0.11-0.28,0.11-0.34,0.23
	c-0.22,0.28-0.39,0.57-0.5,0.85c-0.06,0.17,0.11,0.34-0.11,0.4c0,0.06,0,0.28-0.11,0.28c-0.17,0.34-0.06,0.97,0.06,1.14
	c0.17,0.23-0.11,0.34-0.06,0.4c0,0.23,0.11,0.17,0.22,0.34c0.06,0.11,0,0.23,0.06,0.34c0.11,0.17,0.34,0.06,0.39,0.51
	c0,0.17,0.34,0.23,0.62,0.57c0.06,0.06,0.22,0.23,0.28,0.4c0.06,0.23,0.06,0.4,0.11,0.46c0.06,0.28-0.06,0.28-0.06,0.4
	c0,0.11,0.06,0.11,0.11,0.23c0.06,0.11,0.06,0.28,0.17,0.28c0.11,0.06,0.11,0.28,0,0.45c-0.22,0.17,0,0.23,0,0.34
	c0,0.17-0.11,0.28-0.11,0.4c0,0.06,0.11,0.11,0.11,0.23c0.06,0.11,0.06,0.51-0.11,0.46c-0.06,0,0,0.51-0.11,0.45
	c-0.11-0.06-0.06,1.65-0.06,1.88c0,0.11-0.11,0.17-0.11,0.34v0.74c0,0.06,0.11,0.17,0.11,0.28c0.06,0.34-0.06,0.17-0.11,0.4
	c0,0.06,0.11,0.06,0.06,0.23c0,0.06-0.11,0.06-0.11,0.34c-0.06,0.23,0,0.85,0,1.02c-0.06,0.28,0.33,0.51,0,0.57v2.39
	c0.33,0.74,0.45,1.54,0.62,2.39c-0.22,0.4-0.22,1.08,0,1.54c-0.5,0.46,0.06,1.31-0.5,1.76v2.56c0.17,0.17,0.11,0.34,0,0.51
	c0.39,0.28-0.22,0.46,0,0.8c0.34,0.23-0.06,0.63,0.39,0.8c-0.28,0.51,0.06,0.97,0.06,1.48c0.34,0.17-0.22,0.34,0.06,0.57
	c0,0.17,0.06,0.34-0.06,0.45c0.22,0.63-0.45,0.91-0.23,1.59c-0.11,0.51-0.11,1.14,0,1.65c-0.06,0.11,0.06,0.34-0.11,0.4
	c0.22,1.42-0.06,2.84,0.22,4.32c-0.39,1.82,0.22,3.76,0.22,5.52l0.11,0.23c-0.06,0.68-0.17,1.31-0.84,1.76
	c-0.5-0.11-0.34,0.51-0.73,0.63c0,0.06-0.06,0.17,0.06,0.23c-0.34,0.8-1.29,1.08-1.85,1.71v1.08c0.34,0.23,0.22,0.74,0.62,0.85
	c0.17,0.23,0.5,0.51,0.39,0.8c0.62,0.63,0.33,1.76,0.33,2.62h-0.06c0,0.4,0.17,0.8,0.06,1.2h-0.06c-0.28,0.85,0.5,1.31,0.28,2.16
	c0,0.68,0.39,1.59,0.06,2.33c-0.28,1.08-1.4,0.68-1.96,1.59c-0.17,0.17-0.23,0.4-0.34,0.57c0.06,0.23,0.06,0.34-0.06,0.45
	c0.17,0.85-0.67,1.48-1.23,1.94c0.17,0.28-0.17,0.4-0.22,0.63c0.06,0.34,0,0.8,0.22,1.14c0,0.51,0.56,0.63,0.67,1.08
	c0.62-0.28,1.68,0.28,1.96-0.51c0.28,0.06,0.62-0.11,0.84,0.11c-0.06-0.06,0.06-0.11,0.06-0.17h1.12c0.39,0.57,0.95-0.06,1.51,0.17
	c0.39,0.23,0.84-0.06,1.29-0.11c0.23,0.23,0.62,0.06,0.9,0.11c0.23,0.23,0.5,0.28,0.67,0.51c1.12,0.06,1.91-0.34,2.97,0
	c0.17-0.28,0.5-0.11,0.73-0.17c0.5-0.28,0.95,0.11,1.51,0.06c0.17-0.06,0.28-0.23,0.5-0.17c0.39-0.4,1.18-0.28,1.63-0.11
	c0.17,0.28,0.5,0.17,0.73,0.4c0.56-0.06,1.12-0.23,1.74-0.17c0.34-0.34,0.73-0.46,1.23-0.34c0.34-0.23,1.06-0.51,0.78-1.08
	C95.68,79.37,95.62,78.97,95.45,78.52L95.45,78.52z M86.88,60.88c0.06,0.06,0.17,0.23,0.34,0.17c-0.06,0.11,0.06,0.11,0.11,0.11
	c0.11-0.11,0.45-0.06,0.67-0.06c0.22,0.17,0.28,0.4,0.39,0.63c-0.22,0.17-0.39,0.63-0.84,0.51c-0.39,0.23-0.56-0.4-0.95-0.23
	c-0.34-0.17-0.5-0.4-0.73-0.68C85.98,60.77,86.6,60.77,86.88,60.88L86.88,60.88z M85.59,59.74c-0.22-0.34-0.28-0.57,0-0.91
	c0.22-0.23,0.39-0.4,0.45-0.68c0.67-0.17,1.01-1.71,1.74-0.74c0.11,0.68,0.17,1.42-0.06,1.99c-0.45,0.4-1.01,0.8-1.57,0.57
	C85.98,59.97,85.7,59.97,85.59,59.74L85.59,59.74z M87.78,54.11c-0.28,0.8-0.84,1.42-1.35,2.11c-0.67,0.11-0.9,0.85-1.35,1.25
	c-0.39,0.34-0.22,0.74-0.62,1.08c-0.06,0.51-0.56,0.85-0.73,1.25c-0.56,0-0.84,0.91-1.57,0.51c-0.56-0.23-0.95-0.68-0.95-1.25
	c0.17-0.11,0.06-0.51,0.22-0.63c-0.34-0.46,0.67-0.68,0.5-1.2c1.51-1.54,3.25-2.84,4.2-4.72c0.28-0.46,0.67-0.74,1.12-1.2
	c0.22,0.06,0.5,0.06,0.67,0.34C87.66,52.52,88.28,53.43,87.78,54.11L87.78,54.11z M84.8,61.62c0,0.4-0.5,0.34-0.84,0.63
	c-0.39,0-0.67-0.34-1.12-0.28c-0.22-0.11-0.39-0.11-0.5-0.34c-0.22-0.23,0-0.51,0.28-0.63C83.35,61.17,84.3,60.88,84.8,61.62
	L84.8,61.62z M87.61,47.79c0,0.17,0,0.34-0.11,0.4c0.06,0.51-0.22,0.91-0.22,1.36c-0.73,0.57-1.29,1.42-2.02,1.88
	c-1.01,1.42-2.19,2.5-3.25,3.93c-0.17,0.06-0.34,0.23-0.5,0.17c-0.28-0.06-0.34-0.4-0.5-0.63c0-0.4-0.11-0.91,0.28-1.2
	c-0.06-0.8,0.39-1.37,0.67-2.11c0.17-0.34,0.34-0.8,0.84-0.8c0.78-0.8,2.02-1.71,2.3-2.79c0.5-0.8,1.57-1.08,1.96-1.93
	c0.39-0.11,0.56,0.34,0.84,0.57C87.83,47.11,87.44,47.45,87.61,47.79L87.61,47.79z M87.61,41.99c0.06,0.8-0.95,1.25-0.79,2.05
	c0,0.23-0.06,0.23-0.22,0.4h-0.06c0.06,0.68-0.95,0.97-1.12,1.65c-0.99,0.72-1.83,1.63-2.47,2.67l-0.39,0.34
	c0.11,0.34-0.28,0.51-0.5,0.74c-0.23,0-0.39,0.23-0.62,0.11c-0.39-0.4-0.56-1.08-0.39-1.71c0.5-0.34,0.28-1.08,0.78-1.54
	c0.45-1.25,1.57-2.22,2.58-3.02c0.06-0.34,0.56-0.51,0.56-0.97c0.23-0.34,0.73-0.34,0.67-0.8c0.9-0.4,0.39-1.76,1.4-2.11
	c0.45,0.23,0.79,0.46,0.9,0.97C87.89,41.31,87.44,41.59,87.61,41.99L87.61,41.99z M87.16,36.24c-0.06,0.45,0,0.97-0.22,1.25
	c-0.39,0.28-0.34,0.85-0.73,1.25v0.23c-0.39,0.74-1.4,1.02-1.46,1.93c-0.73,0.57-1.12,1.54-1.57,2.28c-0.5,0.28-0.84,1.25-1.46,0.8
	c-0.23-0.17-0.5,0-0.67-0.34c0.11-0.45-0.06-0.8,0.06-1.36c-0.11-0.68,0.5-0.97,0.67-1.59c0.67-0.85,1.06-1.88,1.79-2.67
	c0.56-0.74,1.46-1.08,1.74-2.11c0.28-0.23,0.39-0.68,0.73-0.97c0-0.34,0.33-0.4,0.39-0.68c0.28-0.06,0.5-0.06,0.84-0.17l0.5,0.68
	C87.38,35.28,87.5,35.79,87.16,36.24z M87.33,28.68c-0.17,0.63,0.34,1.2-0.11,1.71c0.28,0.51-0.34,0.85-0.28,1.36l-0.84,1.2
	c-1.01,1.37-2.24,2.56-3.19,3.98c-0.22,0-0.39,0.23-0.56,0.46c-0.22,0.51-0.34,1.14-0.9,1.36c-0.22,0.17-0.45-0.11-0.56-0.23
	c-0.56-0.34,0.06-0.68,0-1.08c0.22-0.63-0.11-1.42,0.34-1.93c0.06-0.23-0.06-0.34-0.06-0.57c0.84-0.51,0.9-1.54,1.51-2.28l2.13-2.27
	c0.34,0,0.34-0.46,0.62-0.68c0.11-0.51,0.39-1.08,0.9-1.48C86.77,28.22,87.21,28.22,87.33,28.68L87.33,28.68z M87.05,23.16
	c0.33,0.74,0,1.54,0,2.28c-0.95,1.48-2.52,2.84-3.42,4.44c-0.84,0.51-1.23,1.42-2.02,2.16c-0.39-0.06-0.84,0.06-1.01-0.4
	c0.17-0.4-0.34-1.14,0.06-1.54c0-0.51,0.62-0.97,0.67-1.54c0.17-0.51,0.95-0.46,0.73-1.08c0.62-0.4,0.95-1.08,1.62-1.48v-0.11
	c0.95-0.63,0.84-1.99,1.9-2.39c0.23-0.4,0.45-0.4,0.73-0.8C86.71,22.65,86.94,22.93,87.05,23.16L87.05,23.16z M86.88,19.23
	c0.23,0.45-0.34,0.68-0.22,1.2c-0.84,1.14-1.79,2.05-2.75,3.13c-0.5,0.11-0.39,0.57-0.62,0.91c-0.45,0.68-1.18,0.91-1.4,1.65
	l0.06,0.06c-0.34,0.17-0.45,0.63-0.95,0.46c-0.56-0.4-0.22-1.08-0.34-1.65c0.23-0.34-0.22-0.63-0.06-1.02
	c0.39-0.63,0.9-1.54,1.68-1.93c0.45-1.25,1.51-2.11,2.3-3.13l0.06,0.06c0.28-0.06,0.23-0.4,0.45-0.51c0.06,0.06,0.17,0.11,0.22,0.23
	c0.23,0.06,0.39-0.23,0.67-0.17C86.37,18.66,86.88,18.78,86.88,19.23L86.88,19.23z M81.5,13.14c0.67-0.23,1.12-1.02,1.85-0.91
	c0.28,0.06,0.5,0.17,0.84,0.11c0.39,0.51,1.06,0.17,1.51,0.57c0.22,0.28,0.84,0.23,0.73,0.74c0.45,0.23,0.22,0.57,0.22,0.97
	c-0.34,0.51-0.73,0.45-1.29,0.45c-0.28-0.11-0.5-0.51-0.84-0.28c-0.39,0.17-1.01,0.28-1.4,0.11c-0.45,0.23-0.84-0.23-1.23,0.06
	c-0.28-0.17-0.67-0.17-0.84-0.57C80.88,13.88,81.33,13.54,81.5,13.14L81.5,13.14z M81.89,18.09h-0.17
	c-0.06-0.11,0.17-0.28,0.22-0.17C82,17.98,81.95,18.04,81.89,18.09z M80.55,19.06l0.62-0.51c0.5,0.11,0.9-0.17,1.23,0.45
	c0.11-0.06,0.22,0.11,0.28,0.17c-0.39,0.57-0.73,1.82-1.74,1.59c-0.22,0.06-0.39-0.11-0.5-0.23C80.32,20.03,80.21,19.46,80.55,19.06
	L80.55,19.06z M79.93,62.48c0,0.11-0.22,0.11-0.22,0H79.93z M79.37,72.54c0.17-0.51,0-1.31,0.17-1.88
	c-0.28-0.28,0.22-0.57-0.06-0.85c0.11-1.25-0.11-2.67-0.06-3.93c0.17-0.34,0.28-0.63,0.5-0.91c0.79-0.11,1.57,0.23,2.47,0.06
	c0.39-0.46,1.06-0.34,1.46-0.51l0.22,0.17c0.67-0.06,1.51-0.23,2.02,0.51c0.84,0.11,1.68-0.17,2.58-0.17
	c-0.06,0.11,0.06,0.11,0.06,0.17c0.5,0,0.39,0.51,0.67,0.8c-0.22,0.23-0.06,0.63-0.39,0.68c0.39,0.57-0.06,1.54,0.22,2.39
	c0.17,1.08,0.06,2.16,0.06,3.19c-0.34,0.34,0.11,0.68,0.06,1.08c0.06,0.17,0.06,0.34,0.06,0.51c-0.06,0.23-0.28,0.57-0.39,0.8
	c-0.45,0.28-1.29,0.11-1.91,0.17c-0.45,0.06-1.12-0.06-1.57,0.11c-0.67-0.23-1.46-0.06-2.13-0.23c-0.39,0.23-0.67,0.06-1.12,0.17
	c-0.45-0.17-0.95-0.06-1.4,0.11c-0.28,0-0.56,0.17-0.79,0.17C78.81,74.82,79.48,73.4,79.37,72.54L79.37,72.54z M77.41,77.44
	c-0.5-0.34-0.17-0.68-0.22-1.14c0.45-0.34,1.18-0.06,1.74-0.23c0.17-0.4,0.67-0.11,0.9-0.23c0.95-0.11,1.79,0.06,2.75-0.11
	c0.39,0.28,0.9-0.17,1.29,0.06c0.22,0.06,0.67-0.11,0.84,0.17l1.35-0.11c0.67-0.11,1.4,0.51,2.13,0.11c0.34,0,0.9-0.28,1.06,0.23
	c0.2-0.12,0.44-0.18,0.67-0.17c0.28,0.17,0.62,0.28,0.95,0.4c0.45,0.34-0.17,0.51-0.06,0.97c-0.39,0.34-1.06-0.11-1.4,0.34
	c-0.45-0.11-1.06-0.06-1.46,0.06c-0.34-0.23-0.84,0.06-1.18-0.06c-0.11,0.17-0.28,0-0.45,0c-0.39-0.23-1.12-0.23-1.51,0
	c-0.56-0.4-0.95,0.17-1.51-0.12c-0.84-0.11-1.51,0.28-2.35,0c-0.95,0.06-2.02,0.4-2.91-0.06C77.86,77.67,77.58,77.61,77.41,77.44
	L77.41,77.44z M90.97,79.71c-0.17,0-0.34-0.06-0.5,0.06c-0.39-0.85-1.46-0.34-2.19-0.45c-0.67,0.51-1.57,0.23-2.35,0.45
	c-0.5-0.45-1.01,0.28-1.57-0.06c-0.95,0.11-1.74-0.12-2.69,0.06c-0.62,0.06-1.4-0.28-2.07,0.06c-0.39-0.23-1.06-0.06-1.23-0.68
	c0.39-0.68,1.29-0.34,1.91-0.4c0.39-0.06,0.95,0.28,1.4,0.11c0.17,0.11,0.23,0.11,0.39,0.06c0.28-0.23,0.5-0.11,0.78-0.23
	c0.22,0.28,0.67,0.11,0.95,0.17c0,0.06,0.06,0.06,0.11,0.11c0.39-0.06,0.5-0.34,1.01-0.34c0.79,0.34,1.4,0.23,2.3,0.06
	c0.39,0.68,1.18,0.06,1.68,0.11c0.56,0.28,1.12,0.06,1.74,0.06c0.22,0.06,0.56,0.06,0.62,0.34C91.25,79.32,91.19,79.43,90.97,79.71
	L90.97,79.71z M121.84,57.12c-0.17-0.17-0.28-0.4-0.28-0.57c-0.11-0.17-0.17-0.34-0.39-0.51c-0.06-0.51-0.67-0.8-0.9-1.31
	c-0.23-0.11,0.17-0.34-0.17-0.34c0.06-0.57-0.5-0.97-0.5-1.48c-0.28-0.06-0.06-0.34-0.23-0.51c0.23-1.08-0.9-1.54-0.95-2.56
	c-0.78-0.51-0.67-1.48-1.01-2.11c-0.34-0.23-0.22-0.8-0.67-0.97c-0.34-0.68-0.39-1.31-0.5-1.99c-0.39-0.8-0.84-1.42-1.29-2.22
	c0-0.17,0-0.34-0.17-0.4c-0.06-0.28-0.06-0.51-0.23-0.74c0.06-0.51-0.11-0.97-0.39-1.31c0.11-0.63-0.73-0.57-0.67-1.08
	c-0.5-0.11-0.34-0.8-0.73-0.97c-0.5,0.06-0.95-0.17-1.4-0.51l-1.46-0.06c-0.73-0.06-1.29,0.34-1.74,0.91
	c0.06,0.17-0.11,0.23-0.22,0.34c-0.45,0.23-0.5,0.8-0.73,1.25c-0.17,0.17-0.23,0.4-0.34,0.51v0.57c-0.5,0.11,0.06,0.51-0.28,0.68
	c0.06,0.74-0.56,1.25-0.5,1.94c0.11-0.06-0.5,1.02-0.5,1.02c0,0.57-0.56,0.85-0.56,1.42c-0.28,0.34-0.45,0.8-0.34,1.25
	c-0.34,0.51-0.39,1.14-0.56,1.65c0,0.63-0.79,1.08-0.67,1.82c-0.06,0.17-0.11,0.4-0.22,0.51c0.17,0.4-0.28,0.51-0.23,0.8
	c-0.06,0.8-0.67,1.14-0.73,1.88c-0.11,0.28-0.34,0.57-0.39,0.97c0.22,0.57-0.67,0.63-0.39,1.2c-0.5,0.11-0.06,0.68-0.39,0.85
	c0.06,0.51-0.17,1.2,0.23,1.54c0.17,0.63,0.84,0.51,1.4,0.63c0.39,0,0.78,0.23,1.12,0c0.56,0.17,0.67-0.51,1.18-0.34
	c0.56-0.11,0.5-0.8,0.62-1.25h0.06l0.06-0.91h0.06c0.17-0.11-0.11-0.23,0.11-0.34c0-0.68,0.39-1.02,0.45-1.65
	c0.5-0.4,0.34-1.02,0.78-1.48c-0.11-0.34,0.17-0.51,0.34-0.68c0.95-0.23,0.22-0.85,2.13-0.68c0.11,0,0.34,0.06,0.56,0
	c0.17,0.28,0.95-0.06,1.06,0.28c0.22-0.06,0.5,0.11,0.67-0.17c0.22,0.06,0.45-0.06,0.62,0.11c0.5,0.17,1.18-0.23,1.68,0.11
	c0.39,0.74,1.29,1.02,1.4,1.93c0.06,0.51,0.39,0.97,0.45,1.54c0.39,0.51,0.34,1.2,0.79,1.65c-0.11,0.23,0.22,0.34,0.34,0.51
	c0.39,1.71,2.24,0.85,3.53,1.2c0.39,0.11,0.45,0.06,0.73-0.17C122.07,58.49,121.79,57.69,121.84,57.12z M118.43,56.67
	c-0.84-0.34-0.5-1.14-1.06-1.59c0.06-0.57-0.79-0.51-0.56-1.14c-0.45-0.63-0.5-1.14-0.84-1.88c0.22-0.51-0.5-0.68-0.45-1.08
	c-0.22-0.28-0.34-0.46-0.67-0.63c-0.9,0.17-1.74,0.11-2.58,0.34c-0.45,0.17-0.95-0.4-1.29,0.06c-0.45-0.23-0.95,0.17-1.57,0
	c-0.22-0.34-1.06-0.23-1.63-0.4c-0.33,0.34-0.56-0.28-0.89,0.06c0.34,0.63-0.62,0.85-0.67,1.31c-0.06,0.34-0.39,0.46-0.28,0.8
	c-0.5,0.57-0.62,1.37-0.73,1.99c-0.22,0.23-0.17,0.46-0.22,0.63c-0.28,0.34-0.5,0.8-0.84,1.14c0.06,0.11-0.06,0.23-0.11,0.28
	c-0.23,0.06-0.51-0.11-0.62,0.11c-0.34-0.17-0.28-0.51-0.28-0.8c0.17-0.51,0.22-0.97,0.67-1.31c0.11-0.4,0.06-0.74,0.28-1.14
	c0.9-1.02,0.62-2.56,1.57-3.59c-0.06-0.34,0.23-0.51,0.17-0.85c0.39-0.51,0.67-1.37,0.56-2.05c0.28-0.23,0.56-0.51,0.56-0.97
	l0.17-0.17c0-0.28,0.34-0.51,0.28-0.85c-0.11-1.48,1.01-2.22,1.23-3.59c0.73-0.51,0.11-1.36,0.95-1.82c0.84,0.23,1.91-1.08,2.3,0.23
	c-0.28,0.63,0.5,0.68,0.45,1.25c0.34,0.23,0.78,0.68,0.73,1.08c0.34,0.23,0.17,0.63,0.5,0.8c0.17,0.34,0.5,0.51,0.5,0.97
	c0.9,0.4,0.28,1.42,0.95,1.93c-0.17,0.34,0.34,0.51,0.17,0.91c0.45,0.68,0.62,1.48,1.18,2.11v0.17c-0.06-0.06-0.11,0.06-0.17,0.06
	c-0.06,0.34,0.39,0.34,0.45,0.63c-0.11,0.4,0.56,0.63,0.34,1.14l-0.06,0.11c0.56,0.28,0.39,0.85,0.78,1.25
	c0.06,0.8,0.95,1.31,1.01,2.11c0.45,0.63,0.56,1.2,0.67,1.93C119.15,56.61,118.82,56.78,118.43,56.67L118.43,56.67z M50.68,38.46
	c-0.67-0.51-1.46-0.34-2.24-0.17c-0.39,0.51-1.01,0.34-1.29,0.97c-0.23,0.68-0.95,1.14-0.95,1.99c-0.5,0.63-0.67,1.48-0.78,2.27
	c-0.23,0.34-0.45,0.68-0.5,1.08c-0.5,0.34-0.23,0.85-0.67,1.25c-0.22,0.63-0.5,1.25-0.95,1.82c0.28,0.8-0.73,1.08-0.34,1.88
	c-0.22,0.34-0.11,0.97-0.39,1.31c-0.28,0.51-0.62,1.14-1.01,1.65c-0.39-0.06-0.84,0.17-1.01-0.23c-0.17-0.74-1.01-1.2-0.9-1.99
	c-0.45-0.34-0.11-1.02-0.5-1.36c-0.11-0.34-0.33-0.8-0.39-1.14c0.23-0.4-0.5-0.51-0.22-0.91c-0.34-0.23-0.22-0.63-0.39-0.97
	c-0.06-0.57-0.79-0.85-0.67-1.54c-0.34-0.23-0.23-0.51-0.23-0.91c-0.73-0.68-0.5-1.88-1.29-2.56L36,40.85l-0.11-0.17
	c0.11-0.34-0.34-0.51-0.23-0.97c-0.62-0.51-0.62-1.14-1.34-1.54c-0.06-0.51-0.45-0.17-0.67-0.57c-0.28,0.11-0.28-0.28-0.56-0.17
	c-0.62,0.34-1.51,0.28-1.79,1.08c-0.22,0.44-0.18,0.97,0.11,1.37c0,0.34,0.11,0.85,0.28,1.14c0.67,0,0.17,0.8,0.67,0.97
	c0.23,0.45,0.06,0.97,0.5,1.31c-0.22,0.8,0.62,1.25,0.5,1.99c0.11,0.34,0.45,0.63,0.39,0.97c0.23,0.51,0.67,1.08,0.67,1.65
	c0.5,0.51,0.56,1.14,0.95,1.71c0.34,0.63,0.11,1.54,0.84,1.99c-0.23,0.63,0.39,1.02,0.73,1.54c-0.11,0.17,0.17,0.28,0.11,0.4
	c0.17,0.46,0.39,0.97,0.51,1.37c-0.06,0.51,0.5,0.85,0.62,1.25c0.06,0.68,0.84,1.25,0.67,2.05c0.5,0.74,1.29,0.97,1.9,1.31
	c0.79,0,1.91,0.34,2.24-0.74c0.84-0.34,0.62-1.31,1.12-1.82c0.11-0.17-0.06-0.51,0.17-0.57c0.17-0.17,0.06-0.63,0.28-0.8
	c0.34-0.51,0.17-1.36,0.73-1.82c-0.34-0.51,0.39-0.68,0.34-1.08c0.73-0.34,0.17-1.31,0.9-1.71c-0.06-0.46,0.62-0.57,0.45-1.08h0.06
	c-0.11-0.34,0.28-0.57,0.22-0.97c-0.06-0.51,0.5-0.74,0.67-1.2c0.06-0.23-0.28-0.28-0.11-0.51c0.56-0.23,0.5-0.8,0.67-1.31
	c0.06-0.06,0.11-0.23,0.23-0.17v-0.23c0.84-0.4,0.5-1.31,0.84-1.93c0.33-0.51,0.5-1.14,0.84-1.71c0.06-0.34,0.23-0.68,0.5-0.91
	c0-0.28,0.11-0.57,0.28-0.8C50.96,39.55,51.24,38.86,50.68,38.46L50.68,38.46z M47.48,47.74c-0.06-0.06-0.28-0.23-0.06-0.34h0.06
	V47.74z M47.82,43.02c0-0.06-0.06-0.06-0.06-0.11h-0.06c0.06,0.8-0.28,1.48-0.62,2.16c-0.5,0.74-0.67,1.71-0.67,2.56
	c-0.22,0.8-0.95,1.48-1.4,2.11c-0.22,0.68-0.11,1.42-0.62,1.99c-0.22,0.34-0.28,0.8-0.45,1.25c0.23,0.51-0.5,0.51-0.34,0.97
	c-0.28,0.06-0.5,0.34-0.67,0.57c0.06,0.45-0.39,0.63-0.22,0.97c-0.11,0.8-0.39,1.48-1.07,2.05c-0.9-0.06-1.85,0.17-2.19-0.85
	c-0.11-0.34-0.17-0.8-0.56-1.08c-0.17-0.97-0.9-1.76-0.78-2.84c-0.11-0.51-0.67-0.91-0.62-1.54c-0.45-0.63-0.62-1.31-1.12-1.88
	c-0.28-0.68-0.67-1.42-0.84-2.22c0-0.46-0.34-0.8-0.39-1.2c-0.23-0.46-0.28-1.02-0.5-1.54c-0.39-0.23,0.11-0.91-0.5-1.14
	c-0.11-0.45-0.17-1.08-0.5-1.54c-0.11-0.34-0.34-0.68-0.39-1.08c0.5-0.57,0.78,0.17,1.06,0.51c0.06,0.51,0.9,0.91,0.45,1.54
	c0.39,0.17-0.06,0.34,0.06,0.68c0.67,0.17,0.28,0.8,0.73,1.2c0.39,0.4,0.45,0.91,0.73,1.37c0.11,0.68,0.45,1.25,0.84,1.88
	c-0.06,0.63,0.84,0.85,0.56,1.54c0.17,0.4,0.17,0.91,0.5,1.25c0.06,0.46,0.45,0.74,0.5,1.14c-0.17,0.79,0.9,0.85,0.62,1.65
	c0.67,0.34,0.22,1.02,0.84,1.31c-0.11,0.46,0.45,0.57,0.67,0.8c0.39,0.06,0.79-0.34,1.01-0.74c-0.06-0.68,1.06-0.91,0.78-1.71
	c0.62-0.34,0-1.37,0.67-1.82c0.34-0.4,0.28-0.91,0.62-1.25c-0.11-0.28,0.34-0.34,0.39-0.68c0.06-0.51,0.5-0.8,0.45-1.31
	c0.17-0.97,1.12-1.71,1.46-2.68c0-0.34,0.11-0.68,0.06-1.08c0.34-0.34,0.34-0.8,0.5-1.25c0.39-0.34,0.23-0.97,0.62-1.31
	c0.39-0.11,0.28-0.91,0.78-0.51c-0.06,0.34,0.06,0.68,0.23,0.97C48.16,42.33,48.27,42.9,47.82,43.02L47.82,43.02z M64.52,40.34
	c-0.11-0.46-0.73-0.57-0.9-0.91c-0.5,0.06-0.78-0.74-1.29-0.8c-0.22-0.1-0.47-0.08-0.67,0.06c-0.22-0.17-0.5-0.23-0.73-0.51
	c-0.34-0.06-0.84-0.17-1.12,0.11c-0.64-0.11-1.29,0.1-1.74,0.57c-0.39-0.12-0.62,0.34-0.9,0.51c-0.56,0.17-0.95,0.51-1.51,0.63
	c-0.5,0.8-1.4,1.42-1.46,2.39c-0.62,0.28-0.28,0.97-0.5,1.42c-0.38,0.66-0.61,1.4-0.67,2.16c-0.06,0.34,0,0.8-0.22,1.08
	c0,0.63,0.22,1.37-0.06,1.93c0.22,1.48-0.34,3.24,0.5,4.55c-0.06,0.28,0.06,0.51,0.22,0.74c0.06,0.85,0.34,1.65,1.12,2.22
	c-0.06,0.51,0.67,0.51,0.56,1.08c0.06,0.06,0.17,0.28,0.34,0.23c0.06,0.11,0.28,0.17,0.22,0.34c0.06,0.23,0.28,0.17,0.45,0.17
	c0.23,0.28,0.62,0.34,0.84,0.51c0.5,0.06,0.84,0.34,1.4,0.4c0.22,0.23,0.67,0.06,0.95,0.4c0.45-0.11,1.01,0.28,1.57,0
	c0.34-0.74,1.29-0.23,1.74-0.45c0.22-0.34,0.62-0.06,0.84-0.4c0.39-0.34,0.84-0.68,1.34-0.91c0.67-0.23,0.84-1.02,1.23-1.37
	c0.62-0.63-0.06-1.42,0.11-2.27c-0.28-0.34-0.06-0.97-0.39-1.25c-0.17-0.11-0.28-0.4-0.56-0.28c-0.56-0.28-1.29-0.06-1.91,0
	c-0.45,0.28-0.45,0.74-0.56,1.14c-0.17,0.23-0.45,0.28-0.39,0.51c-0.39,0.85-1.35,0.91-2.18,0.8c-0.23-0.11-0.45,0.28-0.62,0H59.2
	c-0.5-0.11-1.12-0.4-1.29-0.97c-0.39-0.28-0.17-0.8-0.67-1.08c0.11-0.28-0.17-0.34-0.23-0.51c0-0.91-0.62-1.93-0.22-2.84
	c-0.28-0.4,0.11-0.74-0.17-1.08c0.11-0.68-0.11-1.54,0.17-2.22c0.23-0.23-0.06-0.68,0.23-0.74c0.11-0.63,0.56-1.25,1.12-1.59
	c0.67-0.06,1.01-1.08,1.79-0.85c0.62-0.34,1.51-0.06,2.02,0.34c0.45-0.11,0.5,0.4,0.9,0.51c0.39,0.68,1.06,1.54,2.02,1.42
	c0.23-0.34,0.5-0.23,0.73-0.4c0.62,0.06,0.56-0.74,0.95-0.97c0.22-1.02-0.28-1.71-0.56-2.5C65.42,41.08,65.02,40.8,64.52,40.34
	L64.52,40.34z M64.35,42.96c-0.28,0.06-0.51,0.63-0.84,0.23c-0.5-0.4-1.12-1.31-1.96-1.08c-0.34-0.4-0.9-0.17-1.23-0.51
	c-0.5,0.23-1.06,0-1.46,0.46c-0.62,0.11-1.01,0.68-1.63,0.8c-0.5,0.23-0.34,0.8-0.84,0.97c-0.23,0.57-0.84,0.97-0.67,1.71
	c0.06,0.17-0.06,0.28-0.22,0.34c0.06,1.42-0.39,2.79,0,4.15c-0.28,0.28,0.11,0.51,0.06,0.85c-0.11,0.4,0.06,0.97-0.22,1.37
	c0.39,0.8,0.33,1.76,1.12,2.39c0,0.34,0.28,0.28,0.45,0.51l0.28-0.06c0.06,0.45,0.39,0.8,0.84,1.02c0.39,0.06,0.73,0.11,1.12,0.28
	c0.56-0.34,0.95,0.51,1.74,0.23c0.06,0.23,0.28,0.06,0.39,0.11c0.39-0.06,0.84-0.23,1.12-0.51c0.5-0.23,0.84-0.68,1.18-1.08
	c0.22,0,0.5-0.11,0.73,0.11c0.17,0.06,0.11,0.28,0.11,0.45c-0.5,1.08-1.57,1.08-2.18,1.99c-0.67,0.4-1.57,0.23-2.3,0.23
	c-0.28-0.4-0.84-0.34-1.18-0.51c-0.17-0.34-0.62,0-0.78-0.34c-0.9-0.06-1.79-0.8-2.07-1.59c-0.5-0.23-0.17-0.8-0.62-1.02
	c0-0.4-0.34-0.8-0.22-1.31c-0.39-0.34-0.28-0.97-0.5-1.37c0.28-0.28-0.39-0.45-0.11-0.74c-0.39-0.17,0-0.63-0.23-0.97
	c0.11-0.8,0.22-1.82,0.34-2.67c-0.28-0.97,0.45-1.59,0.34-2.56c0.34-0.97,0.84-1.88,1.4-2.79c0.45-0.34,0.39-1.08,1.12-1.02
	c0.34-0.06,0.56-0.28,0.84-0.51c0.39-0.23,0.84-0.23,1.29-0.28c0.39-0.17,1.01-0.06,1.4-0.28c0.5,0.11,0.95,0.28,1.46,0.51
	C63.17,41.14,64.46,41.71,64.35,42.96L64.35,42.96z"/>
<path class="st0" d="M113.22,46.49c0.22-0.28-0.17-0.51-0.22-0.68c0.11-0.4-0.39-0.51-0.39-0.97c-0.28-0.51-0.22-1.2-0.73-1.59
	c-0.06-0.4-0.28-0.68-0.34-1.08c-0.22-0.06-0.45-0.34-0.84-0.34c-0.56-0.23-0.39,0.57-0.78,0.4l-0.11,0.11
	c-0.39,0.45-0.51,1.02-0.56,1.59c-0.62,0.06-0.11,0.8-0.62,0.97c0.06,0.34-0.22,0.51-0.17,0.8c-0.5,0.23,0.06,1.02-0.5,1.2
	c-0.06,0.23,0.17,0.23,0.22,0.34c-0.22,0.11-0.22,0.34-0.45,0.51c0.11,0.45-0.22,0.68-0.22,1.08c0.11,0.34,0.67,0.23,0.95,0.28
	c0.56,0.23,1.35,0.11,1.85,0.06c0.23-0.06,0.56,0.17,0.56-0.17c0.06,0,0.11-0.06,0.17,0c0,0.11,0.28,0,0.17,0.06
	c0.06-0.06,0.45,0.23,0.95,0.11c0.73-0.17,1.57,0.11,2.3-0.23c0.22-0.4-0.22-0.8-0.17-1.25C113.61,47.4,113.83,46.83,113.22,46.49
	L113.22,46.49z M111.98,48.08c-0.34-0.11-0.34,0.23-0.62,0.34c-0.45-0.06-0.84,0.28-1.23-0.11c-0.22,0.06-0.39,0-0.5-0.11
	c0.11-0.34-0.22-0.51-0.45-0.68c0.5-0.46,0.45-1.14,0.95-1.54c0.06-0.51,0-1.08,0.45-1.36c0.22,0.06,0.28-0.17,0.5-0.06
	c0.39,0.34,0.45,0.91,0.78,1.25c0.17,0.46,0.34,0.68,0.39,1.2C112.49,47.34,112.15,47.74,111.98,48.08z"/>
<path class="st0" d="M165.38,43.36L85.31,0.46C84.74,0.16,84.1,0,83.46,0c-0.67,0-1.23,0.17-1.85,0.46L1.65,43.36
	c-2.02,1.08-2.02,3.98,0,5.01l80.07,42.9c0.57,0.3,1.21,0.45,1.85,0.46c0.67,0,1.23-0.17,1.85-0.46l79.96-42.9
	C167.4,47.28,167.4,44.38,165.38,43.36L165.38,43.36z M164.32,46.37l-80.07,42.9c-0.25,0.12-0.51,0.17-0.79,0.17
	c-0.28,0-0.56-0.06-0.79-0.17L2.66,46.37c-0.23-0.17-0.28-0.34-0.28-0.51c0-0.17,0.06-0.4,0.28-0.51l80.07-42.9
	c0.23-0.11,0.5-0.17,0.79-0.17s0.56,0.06,0.79,0.17l80.02,42.9c0.22,0.11,0.28,0.34,0.28,0.51C164.66,46.03,164.6,46.2,164.32,46.37
	L164.32,46.37z"/>
</svg>
