<?xml version="1.0" encoding="utf-8"?>
<!-- Generator: Adobe Illustrator 25.0.0, SVG Export Plug-In . SVG Version: 6.00 Build 0)  -->
<svg version="1.1" id="Layer_1" xmlns="http://www.w3.org/2000/svg" xmlns:xlink="http://www.w3.org/1999/xlink" x="0px" y="0px"
	 viewBox="0 0 356.69 43.32" style="enable-background:new 0 0 356.69 43.32;" xml:space="preserve">
<style type="text/css">
	.st0{fill:#FFFFFF;}
</style>
<g>
	<g>
		<path class="st0" d="M111.28,22.09v6.67c0,0.25-5.77,3.07-10.26,3.07c-3.78,0.03-7.41-1.48-10.06-4.19
			c-3.16-3.02-4.94-7.21-4.93-11.58c0-8.37,6.35-15.8,14.87-16.05h0.44c3.16,0,6.21,1.2,8.53,3.35c0.37,0.25,0.64,0.62,0.76,1.05
			v3.05h-0.29c0.01-0.03,0.01-0.06,0-0.09c-0.58-2.38-2.16-4.4-4.33-5.53c-1.28-0.61-2.66-0.97-4.07-1.05
			c-8.81-0.55-10.98,9.75-10.98,15.27c0,6.34,4.32,14.85,10.82,14.85c5.23,0,7.66-4.05,8.65-6.79c0.19-0.68,0.39-1.35,0.55-2.01
			h0.27L111.28,22.09z M122.44,30.54V0.71h-6.21v0.25c0.26,0,2.51,0.43,2.51,1.89v27.68c0.01,0.53-0.42,0.96-0.94,0.96l0,0v0.27
			h5.58V31.5c-0.5,0.01-0.91-0.38-0.92-0.88v-0.01c0,0,0,0,0-0.06 M337.09,30.55V0.71h-6.18v0.25c0.25,0,2.53,0.43,2.53,1.89v27.68
			c0,0.53-0.43,0.96-0.96,0.96h-0.01v0.27h5.55V31.5c-0.5,0.02-0.91-0.37-0.93-0.87v-0.01C337.09,30.62,337.09,30.62,337.09,30.55
			 M24.78,1.04v0.31c1.23,0,1.81,0.8,1.45,1.7l-8.73,23.1L8.87,3.64c-0.66-1.73,0.48-2.29,1.86-2.29V1.04H0v0.31
			c1.98-0.09,3.79,1.09,4.51,2.93l10.52,27.53h1.05l10.78-28.5c0.5-1.16,1.62-1.92,2.88-1.97v-0.3H24.78z M349.89,31.77
			c4.31,0,6.8-2.96,6.8-6.08c0-2.58-1.93-4.19-4.57-5l-3.14-1.05c-2.49-0.77-3.8-1.55-3.8-3.38c0-2.09,1.58-3.38,4.31-3.38
			c2.91,0,3.99,2.27,4.8,4.81h0.24v-3.57c-1.41-1.17-3.18-1.82-5.01-1.83c-3.54,0-6.15,2.43-6.15,5.63c0,3.78,2.47,4.61,4.24,5.23
			l3.33,1.13c1.44,0.51,2.78,1.16,2.78,3.35c0.16,1.8-1.18,3.39-2.98,3.54c-0.17,0.01-0.35,0.02-0.52,0c-4.32,0-6-3.31-6.76-5.98
			h-0.21v4.03c1.9,1.55,4.25,2.44,6.7,2.54 M262.32,29.69c0.5,1.07,1.55,1.78,2.73,1.85v0.27h-8.7v-0.27c0.37,0,1.89-0.38,1.37-1.81
			l-3.6-9.5h-10.36l-3.74,9.89c-0.45,1.18,0.95,1.41,1.27,1.41v0.27h-4.19v-0.27c0.92,0.05,1.78-0.45,2.2-1.27l11.01-29.35h1.05
			l10.93,28.7 M248.91,6.59l-4.58,12.12h9.18L248.91,6.59z M279.41,12.37c-3.62,0-5.15,3.14-5.63,4.79h-0.06v-4.29h-4.54v0.21
			c0.45,0.05,0.83,0.38,0.92,0.83v16.85c-0.07,0.45-0.47,0.77-0.92,0.73v0.27h5.5v-0.27c-0.42,0.05-0.8-0.22-0.9-0.63V20.78
			c0-4.74,2.68-7.56,4.46-7.56c0.97,0,1.5,0.68,1.5,1.82v2c0,0.74,0.49,1.23,1.76,1.23c1.05,0,1.72-0.48,1.72-1.23
			C283.2,13.72,282.06,12.37,279.41,12.37 M48.14,30.71c-0.93,0.69-2.06,1.06-3.21,1.05c-2.74,0-3.78-1.22-4.24-3.32v-0.13v0.24
			c-1.62,1.96-4.03,3.11-6.57,3.14c-2.7,0-4.68-1.5-4.68-4.35c0-5.33,7.21-6.45,11.26-6.28h0.13V17.2c0-2.75-0.74-4.41-3.56-4.41
			c-1.89,0-3.95,0.55-3.95,2.63v1.96c-0.03,0.81-0.72,1.45-1.54,1.41l0,0h-0.13c-1.89,0-1.86-0.78-1.86-1.85
			c0-2.52,3.09-4.73,7.46-4.73c5.23,0,7.12,2.87,7.12,5.88v10.37c0,1.61,0.58,2.09,1.49,2.24c0.73,0.16,1.49,0.04,2.15-0.32
			L48.14,30.71z M40.5,27.42c0.16-0.47,0.25-0.95,0.27-1.44v-4.22c-2.79,0-7.7,0.55-7.7,4.19c-0.17,2.07,1.38,3.89,3.45,4.06l0,0H37
			c1.58-0.1,2.95-1.15,3.46-2.65 M69.98,30.49v-12.4c0-3.97-2.61-5.72-6.38-5.72h-1.03c-0.18,0.01-0.36,0.04-0.53,0.08H61.8
			c-0.17,0.02-0.33,0.06-0.49,0.13c-0.07,0.01-0.13,0.01-0.2,0c-0.19,0.06-0.37,0.13-0.54,0.22h-0.12
			c-0.77,0.34-1.48,0.81-2.09,1.38c-0.14,0.11-0.27,0.24-0.38,0.39c-0.01,0.02-0.01,0.04,0,0.05c-0.34,0.35-0.64,0.75-0.89,1.17
			l-0.06,0.06c-0.05,0.1-0.11,0.21-0.18,0.3v-3.29h-5.17v0.21c0.47-0.01,0.86,0.36,0.89,0.83v16.74c-0.06,0.46-0.43,0.81-0.89,0.85
			v0.27h5.44V31.5c-0.49-0.08-0.86-0.49-0.88-0.98V19.98c0.02-0.11,0.04-0.22,0.05-0.32c0-0.18,0.06-0.39,0.08-0.6
			c0.02-0.21,0-0.16,0.07-0.26c0.56-2.95,3.06-5.14,6.06-5.31h0.1c2.67,0,3.38,0.82,3.56,3.55c0,0.48,0.07,1.05,0.07,1.54V30.5
			c-0.03,0.52-0.44,0.93-0.96,0.97v0.27h5.51v-0.27c-0.5-0.02-0.89-0.43-0.87-0.93l0,0 M182.39,0.09c-2.5,0.2-4.79,1.47-6.28,3.5
			c-1.05,1.41-1.92,3.14-1.92,7.1v1.05c-0.19,0.89-1.12,2.2-2.09,2.2c0.74,0.02,1.46-0.17,2.09-0.55V30.9
			c-0.1,0.41-0.46,0.71-0.88,0.74v0.24h5.4v-0.24c-0.42,0.01-0.78-0.3-0.84-0.72V14.1h4.19v-1.14h-4.19V7.02
			c0-4.36,1.96-6.28,4.31-6.28c1.05,0,2.37,0.44,2.37,1.97v2.18c0,0.72,0.49,1.18,1.75,1.18s1.72-0.46,1.72-1.18
			c0-2.58-0.89-4.79-5.57-4.79 M225.8,18.83c-1.8,0-4.04,2.18-5.37,3.98c-0.63,0.83-1.9,3.14-2.71,4.36
			c2.23,2.52,4.6,4.35,6.96,2.63l0.16,0.27c-2.58,2.44-6.64,2.38-9.14-0.15c0,0-0.16-0.17-0.23-0.24c-1.7,1.58-3.95,2.44-6.28,2.39
			c-6.8,0.29-8.59-4.03-8.59-6.8c0-3.79,3.14-5.51,4.99-6.16l0.65-0.16l0.44-0.1l-0.58-0.7c-1.1-1.12-1.73-2.62-1.78-4.19
			c-0.05-3.09,2.41-5.65,5.5-5.7h0.37c3.5,0,5.59,2,5.59,5.03c0.01,0.17,0.01,0.34,0,0.5v0.27c0.01,0.02,0.01,0.04,0,0.06
			c-0.1,0.38-0.24,0.75-0.42,1.1c-0.04,0.1-0.09,0.19-0.15,0.27c-0.13,0.17-0.26,0.3-0.4,0.46c-1.1,1.15-2.52,1.94-4.07,2.27
			l1.49,1.93c1.92,2.47,3.35,4.34,5.23,6.56c0.17-0.22,0.32-0.45,0.46-0.69c1.21-2.34,1.93-4.91,2.09-7.55h5.9v0.36 M209.05,16.13
			c0.46,0.55,0.85,1.05,1.26,1.56c1.86-0.8,2.61-1.89,2.86-4.49c0-2.09-1.26-4.51-3.44-4.51h-0.31c-1.85,0.29-3.79,3.14-0.36,7.43
			 M214.88,29.57c0.12-0.1,0.24-0.2,0.38-0.35l-0.09-0.14c-4.52-5.59-6.76-8.37-7.87-9.69c-0.45,0.23-0.87,0.51-1.27,0.82
			c-0.58,0.51-1.04,1.16-1.32,1.88c-0.2,0.68-0.3,1.38-0.29,2.09c0.25,1.84,1.06,3.55,2.31,4.92c1.81,1.94,4.7,2.42,7.03,1.15
			c0.05-0.01,0.09-0.03,0.13-0.06l0.3-0.18c0.24-0.14,0.47-0.3,0.69-0.48 M145.81,27.66c-1.12,1.89-3.37,4.19-8.12,4.19
			c-4.45,0-8.72-3.84-8.72-9.64c0-4.35,2.8-8.5,6.75-9.56c0.63-0.18,1.29-0.27,1.95-0.26h0.75c0.56,0.03,1.11,0.11,1.65,0.24
			c3.83,0.71,6.55,4.14,6.36,8.04v0.17h-13.36c0,0.61,0.09,1.77,0.19,2.56c0.53,3.93,3.26,7.49,6.69,7.49
			c1.06-0.01,2.09-0.34,2.96-0.95c0.71-0.63,1.27-1.39,1.66-2.25h1.1L145.81,27.66z M134.81,15.29c-0.59,1.48-0.94,3.04-1.05,4.64
			h8.86c0-2.95-1.18-6.85-4.48-6.85h-0.51c-1.26,0.22-2.33,1.05-2.87,2.21 M167.06,27.72c-1.13,1.89-3.36,4.19-8.12,4.19
			c-4.45,0-8.72-3.84-8.72-9.64c0-4.35,2.79-8.5,6.74-9.56c0.63-0.18,1.29-0.27,1.95-0.26h0.75c0.55,0.03,1.1,0.11,1.64,0.24
			c3.83,0.72,6.54,4.15,6.35,8.04v0.16h-13.21c0,0.61,0.08,1.77,0.19,2.56c0.53,3.93,3.28,7.49,6.71,7.49
			c1.06-0.01,2.09-0.34,2.95-0.95c0.71-0.62,1.28-1.39,1.66-2.25h1.1L167.06,27.72z M156.18,15.29c-0.59,1.48-0.95,3.04-1.05,4.64
			H164c0-2.95-1.18-6.85-4.49-6.85h-0.45c-1.26,0.22-2.33,1.05-2.87,2.21 M327.17,27.61c-1.11,1.87-3.34,4.19-8.12,4.19
			c-4.45,0-8.7-3.83-8.7-9.63c0-4.38,2.8-8.57,6.73-9.62c0.63-0.17,1.27-0.26,1.93-0.27h0.74c0.56,0.03,1.11,0.1,1.65,0.23
			c3.82,0.71,6.53,4.13,6.35,8.02v0.18h-13.16c0.01,0.86,0.07,1.73,0.19,2.58c0.52,3.95,3.26,7.48,6.69,7.48
			c1.06,0,2.1-0.33,2.96-0.95c0.69-0.63,1.25-1.39,1.65-2.23h1.05L327.17,27.61z M316.3,15.16c-0.59,1.49-0.94,3.05-1.05,4.65h8.87
			c0-2.96-1.18-6.86-4.5-6.86h-0.46C317.9,13.17,316.83,13.99,316.3,15.16 M303.47,15.44c1.4,1.88,2.14,4.18,2.09,6.53
			c0,5.71-3.89,9.83-8.82,9.78c-0.17,0.01-0.34,0.01-0.51,0c-0.67-0.06-1.33-0.2-1.97-0.44c-0.87-0.34-1.59-0.98-2.03-1.81v13.82
			h-6.22v-0.26c0.26,0,2.51-0.45,2.51-1.89V13.96c-0.01-0.38-0.32-0.68-0.7-0.67h-0.05v-0.26h4.44v2.25
			c1.53-1.66,3.69-2.57,5.94-2.51C300.24,12.84,302.18,13.81,303.47,15.44 M295.7,30.77c4.06,0,6.09-4.67,6.09-8.95
			c0.07-2.17-0.58-4.31-1.86-6.07c-0.92-1.18-2.37-1.81-3.86-1.68c-1.36,0-3.84,1.49-3.84,3.63c-0.01,0.2-0.01,0.39,0,0.59v8.81
			c0.06,0.39,0.15,0.77,0.26,1.14c0.28,1.07,1.06,1.94,2.09,2.32c0.33,0.14,0.69,0.22,1.05,0.21"/>
	</g>
</g>
</svg>
