<?xml version="1.0" encoding="utf-8"?>
<!-- Generator: Adobe Illustrator 25.0.0, SVG Export Plug-In . SVG Version: 6.00 Build 0)  -->
<svg version="1.1" id="Layer_1" xmlns="http://www.w3.org/2000/svg" xmlns:xlink="http://www.w3.org/1999/xlink" x="0px" y="0px"
	 viewBox="0 0 77.93 78.1" style="enable-background:new 0 0 77.93 78.1;" xml:space="preserve">
<style type="text/css">
	.st0{fill-rule:evenodd;clip-rule:evenodd;fill:#FFFFFF;}
</style>
<path class="st0" d="M39.26,72.55c5.55,2.78,12.48,5.55,18.95,5.55c6.01,0,14.79-3.24,18.02-9.24c2.31-4.62,2.78-9.7-1.85-12.47
	c-1.22-0.72-2.45-1.41-3.7-2.08c-1.27-0.7-2.54-1.39-3.7-2.08c-0.93-0.46-1.96-1.16-3.01-1.85c-1.04-0.69-2.07-1.38-3-1.85
	c-0.93-0.46-1.39-0.46-1.85-0.46c-2.31,0-4.16,1.85-5.54,3.7c-0.42,0.5-0.82,1.02-1.17,1.57c-1.25,1.82-3.05,4.43-4.38,4.43
	l-3.7-1.85c-6.93-3.69-12.47-8.31-16.63-13.86c-1.96-2.44-3.66-5.07-5.08-7.85c-0.46-0.46-1.38-2.31-1.85-3.7
	c0.84-0.83,1.91-1.69,3.03-2.59c3.84-3.08,8.26-6.62,5.75-11.27c-1.35-1.69-2.46-3.64-3.51-5.46c-0.38-0.66-0.74-1.32-1.11-1.93
	c-0.46-0.77-0.93-1.69-1.4-2.65c-0.96-1.92-1.99-3.97-3.22-5.2C18.93,0.46,17.54,0,16.16,0c-3.7,0-8.32,2.31-10.16,4.16
	c-5.08,5.54-6.93,13.4-5.55,20.8c3.24,13.39,10.63,24.95,20.8,34.65C26.32,64.69,32.33,69.31,39.26,72.55L39.26,72.55z M5.21,23.94
	c2.99,12.28,9.8,23,19.39,32.15l0.04,0.04l0.04,0.04c4.78,4.78,10.33,9.03,16.64,11.97l0.06,0.03l0.06,0.03
	c5.42,2.71,11.49,5.03,16.77,5.03c2.23,0,5.23-0.62,7.99-1.91c2.77-1.29,4.75-2.98,5.7-4.71c0.92-1.85,1.22-3.33,1.14-4.3
	c-0.01-0.33-0.11-0.65-0.27-0.93c-0.23-0.34-0.54-0.63-0.91-0.82c-1.06-0.63-2.24-1.28-3.53-1.98l-0.05-0.02
	c-1.18-0.65-2.47-1.35-3.67-2.07c-1.14-0.59-2.32-1.38-3.22-1.98l-0.12-0.08c-0.72-0.5-1.46-0.96-2.22-1.4
	c-0.61,0.47-1.14,1.03-1.58,1.66l-0.21,0.28l-0.17,0.17l0,0l-0.51,0.73l-0.16,0.23c-0.38,0.55-0.87,1.26-1.38,1.95
	c-0.66,0.9-1.4,1.74-2.21,2.51c-0.63,0.58-2.36,2.09-4.81,2.09h-1.15l-4.78-2.39l-0.05-0.03c-7.45-3.97-13.56-9.02-18.2-15.18
	c-2.04-2.55-3.83-5.29-5.34-8.18c-0.16-0.23-0.32-0.46-0.46-0.7c-0.77-1.31-1.4-2.69-1.89-4.12l-0.95-2.85l2.13-2.13
	c1.04-1.04,2.33-2.07,3.41-2.94l0.37-0.29c1.27-1.02,2.3-1.88,3.12-2.74c0.83-0.88,1.1-1.41,1.17-1.65v-0.01
	c0.01-0.02,0.04-0.07-0.01-0.21c-1.47-1.93-2.75-4.18-3.74-5.92c-0.33-0.58-0.63-1.1-0.89-1.54c-0.61-1.05-1.17-2.13-1.7-3.22
	c-0.19-0.38-0.38-0.76-0.57-1.14c-0.38-0.77-0.82-1.52-1.32-2.22c-0.3-0.18-0.65-0.28-1-0.3c-0.94,0-2.33,0.33-3.82,0.97
	c-1.03,0.42-1.98,1-2.84,1.7C5.66,11.8,4.12,17.94,5.21,23.94L5.21,23.94z"/>
</svg>
