<?xml version="1.0" encoding="utf-8"?>
<!-- Generator: Adobe Illustrator 25.0.0, SVG Export Plug-In . SVG Version: 6.00 Build 0)  -->
<svg version="1.1" id="Layer_1" xmlns="http://www.w3.org/2000/svg" xmlns:xlink="http://www.w3.org/1999/xlink" x="0px" y="0px"
	 viewBox="0 0 109.91 110.15" style="enable-background:new 0 0 109.91 110.15;" xml:space="preserve">
<style type="text/css">
	.st0{fill-rule:evenodd;clip-rule:evenodd;}
</style>
<path class="st0" d="M55.37,102.32c7.83,3.92,17.6,7.82,26.72,7.82c8.48,0,20.86-4.57,25.42-13.04c3.26-6.52,3.92-13.68-2.6-17.59
	c-1.72-1.01-3.46-1.99-5.21-2.93c-1.79-0.98-3.59-1.96-5.21-2.93c-1.31-0.65-2.77-1.63-4.24-2.61c-1.46-0.98-2.93-1.95-4.23-2.61
	c-1.31-0.65-1.96-0.65-2.61-0.65c-3.26,0-5.87,2.61-7.82,5.21c-0.6,0.7-1.15,1.44-1.65,2.22c-1.77,2.56-4.3,6.25-6.18,6.25
	l-5.21-2.61c-9.78-5.21-17.59-11.73-23.46-19.55c-2.76-3.44-5.17-7.15-7.17-11.07c-0.65-0.65-1.95-3.26-2.61-5.22
	c1.18-1.17,2.69-2.38,4.27-3.65c5.41-4.34,11.65-9.34,8.11-15.9c-1.91-2.39-3.47-5.13-4.95-7.71c-0.53-0.93-1.04-1.85-1.57-2.72
	c-0.65-1.09-1.31-2.38-1.98-3.74c-1.35-2.71-2.8-5.6-4.54-7.34C26.7,0.65,24.74,0,22.79,0C17.57,0,11.05,3.26,8.45,5.87
	c-7.17,7.82-9.78,18.9-7.82,29.33c4.57,18.89,15,35.19,29.33,48.88C37.12,91.24,45.6,97.76,55.37,102.32L55.37,102.32z M7.35,33.76
	C11.57,51.08,21.18,66.2,34.7,79.1l0.06,0.05l0.05,0.05c6.74,6.75,14.57,12.74,23.47,16.89l0.08,0.04l0.08,0.04
	c7.65,3.82,16.21,7.09,23.65,7.09c3.15,0,7.38-0.88,11.27-2.69c3.9-1.82,6.7-4.2,8.04-6.64c1.29-2.61,1.72-4.7,1.61-6.06
	c-0.02-0.46-0.15-0.91-0.38-1.31c-0.32-0.49-0.76-0.89-1.28-1.16c-1.49-0.89-3.15-1.8-4.97-2.8l-0.07-0.03
	c-1.67-0.91-3.49-1.9-5.18-2.91c-1.61-0.83-3.28-1.94-4.55-2.79l-0.17-0.12c-1.02-0.7-2.06-1.36-3.13-1.98
	c-0.85,0.67-1.61,1.46-2.23,2.34l-0.3,0.39l-0.24,0.24l0.01-0.01l-0.72,1.03l-0.22,0.32c-0.54,0.77-1.22,1.78-1.95,2.75
	c-0.93,1.27-1.97,2.45-3.11,3.54c-0.89,0.82-3.32,2.95-6.79,2.95h-1.62l-6.75-3.37l-0.08-0.05C48.8,79.32,40.19,72.21,33.65,63.52
	c-2.88-3.6-5.4-7.46-7.54-11.54c-0.23-0.32-0.45-0.65-0.65-0.98c-1.08-1.84-1.98-3.79-2.67-5.81l-1.34-4.02l3-3
	c1.46-1.47,3.29-2.93,4.81-4.15l0.52-0.41c1.79-1.44,3.25-2.66,4.4-3.87c1.17-1.24,1.55-1.99,1.65-2.32V27.4
	c0.02-0.03,0.05-0.1-0.01-0.3c-2.07-2.72-3.88-5.89-5.28-8.35c-0.47-0.82-0.89-1.55-1.26-2.17c-0.85-1.49-1.66-3-2.4-4.54
	c-0.27-0.54-0.54-1.07-0.81-1.61c-0.54-1.09-1.16-2.14-1.86-3.13c-0.43-0.25-0.92-0.4-1.42-0.42c-1.33,0-3.29,0.46-5.39,1.37
	c-1.45,0.6-2.8,1.41-4,2.4C7.98,16.64,5.81,25.31,7.35,33.76L7.35,33.76z"/>
</svg>
